{
  "accessors": [
    {
      "bufferView": 0,
      "componentType": 5126,
      "count": 2675,
      "max": [
        1.6196578741073608,
        2.2965011596679688,
        1.949652910232544
      ],
      "min": [
        -1.6196576356887817,
        -1.129915475845337,
        -1.146486520767212
      ],
      "type": "VEC3"
    },
    {
      "bufferView": 1,
      "componentType": 5126,
      "count": 2675,
      "type": "VEC3"
    },
    {
      "bufferView": 2,
      "componentType": 5123,
      "count": 10740,
      "type": "SCALAR"
    },
    {
      "bufferView": 3,
      "componentType": 5126,
      "count": 2680,
      "max": [
        1.6196577548980713,
        2.4006872177124023,
        1.82607901096344
      ],
      "min": [
        -1.6196577548980713,
        -1.0257294178009033,
        -1.270060420036316
      ],
      "type": "VEC3"
    },
    {
      "bufferView": 4,
      "componentType": 5126,
      "count": 2680,
      "type": "VEC3"
    },
    {
      "bufferView": 5,
      "componentType": 5123,
      "count": 10740,
      "type": "SCALAR"
    },
    {
      "bufferView": 6,
      "componentType": 5126,
      "count": 18007,
      "max": [
        1.3881423473358154,
        1.519773244857788,
        3.882983922958374
      ],
      "min": [
        -1.354652762413025,
        -1.028158187866211,
        -4.061329364776611
      ],
      "type": "VEC3"
    },
    {
      "bufferView": 7,
      "componentType": 5126,
      "count": 18007,
      "type": "VEC3"
    },
    {
      "bufferView": 8,
      "componentType": 5126,
      "count": 18007,
      "type": "VEC2"
    },
    {
      "bufferView": 9,
      "componentType": 5123,
      "count": 61041,
      "type": "SCALAR"
    },
    {
      "bufferView": 10,
      "componentType": 5126,
      "count": 3293,
      "max": [
        1.1746933460235596,
        1.25509512424469,
        3.585277795791626
      ],
      "min": [
        -1.1809635162353516,
        -0.7122262120246887,
        -3.8287289142608643
      ],
      "type": "VEC3"
    },
    {
      "bufferView": 11,
      "componentType": 5126,
      "count": 3293,
      "type": "VEC3"
    },
    {
      "bufferView": 12,
      "componentType": 5123,
      "count": 11781,
      "type": "SCALAR"
    },
    {
      "bufferView": 13,
      "componentType": 5126,
      "count": 32,
      "max": [
        0.17823036015033722,
        -0.48469123244285583,
        -0.41180378198623657
      ],
      "min": [
        -0.3110637962818146,
        -0.6697170734405518,
        -0.9010978937149048
      ],
      "type": "VEC3"
    },
    {
      "bufferView": 14,
      "componentType": 5126,
      "count": 32,
      "type": "VEC3"
    },
    {
      "bufferView": 15,
      "componentType": 5123,
      "count": 114,
      "type": "SCALAR"
    },
    {
      "bufferView": 16,
      "componentType": 5126,
      "count": 32,
      "max": [
        0.17823036015033722,
        -0.48469123244285583,
        -0.41180378198623657
      ],
      "min": [
        -0.3110637962818146,
        -0.6697170734405518,
        -0.9010978937149048
      ],
      "type": "VEC3"
    },
    {
      "bufferView": 17,
      "componentType": 5126,
      "count": 32,
      "type": "VEC3"
    },
    {
      "bufferView": 18,
      "componentType": 5126,
      "count": 1012,
      "max": [
        0.21743054687976837,
        0.2403322458267212,
        0.1375858038663864
      ],
      "min": [
        -0.23799587786197662,
        -0.14414821565151215,
        -0.2427569329738617
      ],
      "type": "VEC3"
    },
    {
      "bufferView": 19,
      "componentType": 5126,
      "count": 1012,
      "type": "VEC3"
    },
    {
      "bufferView": 20,
      "componentType": 5123,
      "count": 3846,
      "type": "SCALAR"
    },
    {
      "bufferView": 21,
      "componentType": 5126,
      "count": 3128,
      "max": [
        1.127866268157959,
        0.3785381019115448,
        0.37854045629501343
      ],
      "min": [
        -1.1278672218322754,
        -0.3785403370857239,
        -0.37853825092315674
      ],
      "type": "VEC3"
    },
    {
      "bufferView": 22,
      "componentType": 5126,
      "count": 3128,
      "type": "VEC3"
    },
    {
      "bufferView": 23,
      "componentType": 5126,
      "count": 3128,
      "type": "VEC2"
    },
    {
      "bufferView": 24,
      "componentType": 5123,
      "count": 10080,
      "type": "SCALAR"
    },
    {
      "bufferView": 25,
      "componentType": 5126,
      "count": 3126,
      "max": [
        1.127866268157959,
        0.3785381019115448,
        0.3785417079925537
      ],
      "min": [
        -1.1278672218322754,
        -0.3785403370857239,
        -0.37853705883026123
      ],
      "type": "VEC3"
    },
    {
      "bufferView": 26,
      "componentType": 5126,
      "count": 3126,
      "type": "VEC3"
    },
    {
      "bufferView": 27,
      "componentType": 5126,
      "count": 3126,
      "type": "VEC2"
    },
    {
      "bufferView": 28,
      "componentType": 5123,
      "count": 10080,
      "type": "SCALAR"
    },
    {
      "bufferView": 29,
      "componentType": 5126,
      "count": 3128,
      "max": [
        1.127866268157959,
        0.3785381019115448,
        0.3785364627838135
      ],
      "min": [
        -1.1278672218322754,
        -0.3785403370857239,
        -0.3785421848297119
      ],
      "type": "VEC3"
    },
    {
      "bufferView": 30,
      "componentType": 5126,
      "count": 3128,
      "type": "VEC3"
    },
    {
      "bufferView": 31,
      "componentType": 5126,
      "count": 3128,
      "type": "VEC2"
    },
    {
      "bufferView": 32,
      "componentType": 5123,
      "count": 10080,
      "type": "SCALAR"
    },
    {
      "bufferView": 33,
      "componentType": 5126,
      "count": 389,
      "max": [
        1.1746933460235596,
        0.9130005836486816,
        3.585254669189453
      ],
      "min": [
        -1.1823034286499023,
        0.016009125858545303,
        -3.8235361576080322
      ],
      "type": "VEC3"
    },
    {
      "bufferView": 34,
      "componentType": 5126,
      "count": 389,
      "type": "VEC3"
    },
    {
      "bufferView": 35,
      "componentType": 5126,
      "count": 389,
      "type": "VEC2"
    },
    {
      "bufferView": 36,
      "componentType": 5123,
      "count": 1584,
      "type": "SCALAR"
    }
  ],
  "asset": {
    "generator": "Khronos glTF Blender I/O v4.0.44",
    "version": "2.0"
  },
  "bufferViews": [
    {
      "buffer": 0,
      "byteLength": 32100,
      "target": 34962
    },
    {
      "buffer": 0,
      "byteLength": 32100,
      "byteOffset": 32100,
      "target": 34962
    },
    {
      "buffer": 0,
      "byteLength": 21480,
      "byteOffset": 64200,
      "target": 34963
    },
    {
      "buffer": 0,
      "byteLength": 32160,
      "byteOffset": 85680,
      "target": 34962
    },
    {
      "buffer": 0,
      "byteLength": 32160,
      "byteOffset": 117840,
      "target": 34962
    },
    {
      "buffer": 0,
      "byteLength": 21480,
      "byteOffset": 150000,
      "target": 34963
    },
    {
      "buffer": 0,
      "byteLength": 216084,
      "byteOffset": 171480,
      "target": 34962
    },
    {
      "buffer": 0,
      "byteLength": 216084,
      "byteOffset": 387564,
      "target": 34962
    },
    {
      "buffer": 0,
      "byteLength": 144056,
      "byteOffset": 603648,
      "target": 34962
    },
    {
      "buffer": 0,
      "byteLength": 122082,
      "byteOffset": 747704,
      "target": 34963
    },
    {
      "buffer": 0,
      "byteLength": 39516,
      "byteOffset": 869788,
      "target": 34962
    },
    {
      "buffer": 0,
      "byteLength": 39516,
      "byteOffset": 909304,
      "target": 34962
    },
    {
      "buffer": 0,
      "byteLength": 23562,
      "byteOffset": 948820,
      "target": 34963
    },
    {
      "buffer": 0,
      "byteLength": 384,
      "byteOffset": 972384,
      "target": 34962
    },
    {
      "buffer": 0,
      "byteLength": 384,
      "byteOffset": 972768,
      "target": 34962
    },
    {
      "buffer": 0,
      "byteLength": 228,
      "byteOffset": 973152,
      "target": 34963
    },
    {
      "buffer": 0,
      "byteLength": 384,
      "byteOffset": 973380,
      "target": 34962
    },
    {
      "buffer": 0,
      "byteLength": 384,
      "byteOffset": 973764,
      "target": 34962
    },
    {
      "buffer": 0,
      "byteLength": 12144,
      "byteOffset": 974148,
      "target": 34962
    },
    {
      "buffer": 0,
      "byteLength": 12144,
      "byteOffset": 986292,
      "target": 34962
    },
    {
      "buffer": 0,
      "byteLength": 7692,
      "byteOffset": 998436,
      "target": 34963
    },
    {
      "buffer": 0,
      "byteLength": 37536,
      "byteOffset": 1006128,
      "target": 34962
    },
    {
      "buffer": 0,
      "byteLength": 37536,
      "byteOffset": 1043664,
      "target": 34962
    },
    {
      "buffer": 0,
      "byteLength": 25024,
      "byteOffset": 1081200,
      "target": 34962
    },
    {
      "buffer": 0,
      "byteLength": 20160,
      "byteOffset": 1106224,
      "target": 34963
    },
    {
      "buffer": 0,
      "byteLength": 37512,
      "byteOffset": 1126384,
      "target": 34962
    },
    {
      "buffer": 0,
      "byteLength": 37512,
      "byteOffset": 1163896,
      "target": 34962
    },
    {
      "buffer": 0,
      "byteLength": 25008,
      "byteOffset": 1201408,
      "target": 34962
    },
    {
      "buffer": 0,
      "byteLength": 20160,
      "byteOffset": 1226416,
      "target": 34963
    },
    {
      "buffer": 0,
      "byteLength": 37536,
      "byteOffset": 1246576,
      "target": 34962
    },
    {
      "buffer": 0,
      "byteLength": 37536,
      "byteOffset": 1284112,
      "target": 34962
    },
    {
      "buffer": 0,
      "byteLength": 25024,
      "byteOffset": 1321648,
      "target": 34962
    },
    {
      "buffer": 0,
      "byteLength": 20160,
      "byteOffset": 1346672,
      "target": 34963
    },
    {
      "buffer": 0,
      "byteLength": 4668,
      "byteOffset": 1366832,
      "target": 34962
    },
    {
      "buffer": 0,
      "byteLength": 4668,
      "byteOffset": 1371500,
      "target": 34962
    },
    {
      "buffer": 0,
      "byteLength": 3112,
      "byteOffset": 1376168,
      "target": 34962
    },
    {
      "buffer": 0,
      "byteLength": 3168,
      "byteOffset": 1379280,
      "target": 34963
    }
  ],
  "buffers": [
    {
      "byteLength": 1382448,
      "uri": "data:application/octet-stream;base64,"
    }
  ],
  "cameras": [
    {
      "name": "Camera.001",
      "perspective": {
        "aspectRatio": 1.0,
        "yfov": 45.0,
        "zfar": 100.0,
        "znear": 0.10000000149011612
      },
      "type": "perspective"
    }
  ],
  "extensions": {
    "KHR_lights_punctual": {
      "lights": [
        {
          "color": [
            1.0,
            1.0,
            1.0
          ],
          "intensity": 0.7,
          "name": "Light",
          "range": 2.0,
          "type": "point"
        }
      ]
    }
  },
  "extensionsRequired": [
    "KHR_lights_punctual"
  ],
  "extensionsUsed": [
    "KHR_materials_clearcoat",
    "KHR_materials_transmission",
    "KHR_lights_punctual"
  ],
  "images": [
    {
      "name": "clay_emissive",
      "uri": "clay_emissive.jpg"
    },
    {
      "name": "clay_clearcoat",
      "uri": "clay_clearcoat.png"
    },
    {
      "name": "clay_baseColor",
      "uri": "clay_baseColor.png"
    },
    {
      "name": "clay_metallicRoughness",
      "uri": "clay_metallicRoughness.png"
    },
    {
      "name": "clay_001_baseColor",
      "uri": "clay_001_baseColor.jpg"
    },
    {
      "name": "clay_001_metallicRoughness",
      "uri": "clay_001_metallicRoughness.png"
    },
    {
      "name": "windows_metallicRoughness",
      "uri": "windows_metallicRoughness.png"
    },
    {
      "name": "windows_baseColor",
      "uri": "windows_baseColor.png"
    }
  ],
  "materials": [
    {
      "doubleSided": true,
      "extensions": {
        "KHR_materials_clearcoat": {
          "clearcoatFactor": 1,
          "clearcoatRoughnessFactor": 0.5793265104293823
        }
      },
      "name": "interior",
      "pbrMetallicRoughness": {
        "baseColorFactor": [
          0.15109507739543915,
          0.15109507739543915,
          0.15109507739543915,
          1.0
        ],
        "metallicFactor": 0.6218876838684082,
        "roughnessFactor": 0.6766092777252197
      }
    },
    {
      "doubleSided": true,
      "emissiveFactor": [
        1.0,
        1.0,
        1.0
      ],
      "emissiveTexture": {
        "index": 0
      },
      "extensions": {
        "KHR_materials_clearcoat": {
          "clearcoatFactor": 1,
          "clearcoatRoughnessFactor": 0,
          "clearcoatTexture": {
            "index": 1
          }
        }
      },
      "name": "clay",
      "pbrMetallicRoughness": {
        "baseColorTexture": {
          "index": 2
        },
        "metallicFactor": 0.46988338232040405,
        "metallicRoughnessTexture": {
          "index": 3
        }
      }
    },
    {
      "doubleSided": true,
      "name": "clay.001",
      "pbrMetallicRoughness": {
        "baseColorTexture": {
          "index": 4
        },
        "metallicRoughnessTexture": {
          "index": 5
        }
      }
    },
    {
      "alphaMode": "BLEND",
      "extensions": {
        "KHR_materials_clearcoat": {
          "clearcoatFactor": 1,
          "clearcoatRoughnessFactor": 0
        },
        "KHR_materials_transmission": {
          "transmissionFactor": 0.4936355650424957
        }
      },
      "name": "windows",
      "occlusionTexture": {
        "index": 6
      },
      "pbrMetallicRoughness": {
        "baseColorFactor": [
          0.612866222858429,
          0.3493635952472687,
          0.024787645787000656,
          0.5063644051551819
        ],
        "baseColorTexture": {
          "index": 7
        },
        "metallicRoughnessTexture": {
          "index": 6
        }
      }
    }
  ],
  "meshes": [
    {
      "name": "Object_2",
      "primitives": [
        {
          "attributes": {
            "NORMAL": 1,
            "POSITION": 0
          },
          "indices": 2,
          "material": 0,
          "mode": 4
        }
      ]
    },
    {
      "name": "Object_5",
      "primitives": [
        {
          "attributes": {
            "NORMAL": 4,
            "POSITION": 3
          },
          "indices": 5,
          "material": 0,
          "mode": 4
        }
      ]
    },
    {
      "name": "Object_6",
      "primitives": [
        {
          "attributes": {
            "NORMAL": 7,
            "POSITION": 6,
            "TEXCOORD_0": 8
          },
          "indices": 9,
          "material": 1,
          "mode": 4
        }
      ]
    },
    {
      "name": "Object_3",
      "primitives": [
        {
          "attributes": {
            "NORMAL": 11,
            "POSITION": 10
          },
          "indices": 12,
          "material": 0,
          "mode": 4
        }
      ]
    },
    {
      "name": "Object_4",
      "primitives": [
        {
          "attributes": {
            "NORMAL": 14,
            "POSITION": 13
          },
          "indices": 15,
          "material": 0,
          "mode": 4
        }
      ]
    },
    {
      "name": "Object_1",
      "primitives": [
        {
          "attributes": {
            "NORMAL": 17,
            "POSITION": 16
          },
          "indices": 15,
          "material": 0,
          "mode": 4
        }
      ]
    },
    {
      "name": "Object_0",
      "primitives": [
        {
          "attributes": {
            "NORMAL": 19,
            "POSITION": 18
          },
          "indices": 20,
          "material": 0,
          "mode": 4
        }
      ]
    },
    {
      "name": "Object_8",
      "primitives": [
        {
          "attributes": {
            "NORMAL": 22,
            "POSITION": 21,
            "TEXCOORD_0": 23
          },
          "indices": 24,
          "material": 2,
          "mode": 4
        }
      ]
    },
    {
      "name": "Object_9",
      "primitives": [
        {
          "attributes": {
            "NORMAL": 26,
            "POSITION": 25,
            "TEXCOORD_0": 27
          },
          "indices": 28,
          "material": 2,
          "mode": 4
        }
      ]
    },
    {
      "name": "Object_7",
      "primitives": [
        {
          "attributes": {
            "NORMAL": 30,
            "POSITION": 29,
            "TEXCOORD_0": 31
          },
          "indices": 32,
          "material": 2,
          "mode": 4
        }
      ]
    },
    {
      "name": "Object_10",
      "primitives": [
        {
          "attributes": {
            "NORMAL": 34,
            "POSITION": 33,
            "TEXCOORD_0": 35
          },
          "indices": 36,
          "material": 3,
          "mode": 4
        }
      ]
    }
  ],
  "nodes": [
    {
      "mesh": 0,
      "name": "Object_8"
    },
    {
      "children": [
        0
      ],
      "name": "Chair",
      "scale": [
        0.24527092278003693,
        0.28796401619911194,
        0.24527092278003693
      ],
      "translation": [
        0.7521923780441284,
        0.13026291131973267,
        2.730529308319092
      ]
    },
    {
      "mesh": 1,
      "name": "Object_14"
    },
    {
      "children": [
        2
      ],
      "name": "Chair 2",
      "rotation": [
        0.0,
        0.9733010530471802,
        0.0,
        0.2295326590538025
      ],
      "scale": [
        0.2452709674835205,
        0.28796401619911194,
        0.2452709674835205
      ],
      "translation": [
        -0.7456600069999695,
        0.10026108473539352,
        2.8466851711273193
      ]
    },
    {
      "mesh": 2,
      "name": "Object_16"
    },
    {
      "children": [
        4
      ],
      "name": "Exterior",
      "scale": [
        1.1690809726715088,
        1.1690809726715088,
        1.1690809726715088
      ]
    },
    {
      "mesh": 3,
      "name": "Object_10"
    },
    {
      "children": [
        6
      ],
      "name": "Interior",
      "scale": [
        1.1690809726715088,
        1.1690809726715088,
        1.1690809726715088
      ]
    },
    {
      "mesh": 4,
      "name": "Object_12"
    },
    {
      "children": [
        8
      ],
      "name": "Object",
      "translation": [
        -0.6563523411750793,
        0.2930726408958435,
        3.4762399196624756
      ]
    },
    {
      "mesh": 5,
      "name": "Object_6"
    },
    {
      "children": [
        10
      ],
      "name": "Platform",
      "translation": [
        0.8415001034736633,
        0.2930726408958435,
        3.4762399196624756
      ]
    },
    {
      "mesh": 6,
      "name": "Object_4"
    },
    {
      "children": [
        12
      ],
      "name": "Steering wheel",
      "rotation": [
        -0.06816992163658142,
        0.001341904979199171,
        0.0060338363982737064,
        0.9976546168327332
      ],
      "scale": [
        1.059789776802063,
        1.0597896575927734,
        1.0597896575927734
      ],
      "translation": [
        0.7595362067222595,
        0.24415850639343262,
        3.3979837894439697
      ]
    },
    {
      "mesh": 7,
      "name": "Object_20"
    },
    {
      "children": [
        14
      ],
      "name": "Wheel 2",
      "rotation": [
        0.12311616539955139,
        0.0,
        0.0,
        0.992392361164093
      ],
      "scale": [
        1.1690809726715088,
        1.1690810918807983,
        1.1690810918807983
      ],
      "translation": [
        0.0,
        -0.9601843953132629,
        -1.14131760597229
      ]
    },
    {
      "mesh": 8,
      "name": "Object_22"
    },
    {
      "children": [
        16
      ],
      "name": "Wheel 3",
      "rotation": [
        -0.5666889548301697,
        0.0,
        0.0,
        0.8239318132400513
      ],
      "scale": [
        1.1690809726715088,
        1.1690813302993774,
        1.1690813302993774
      ],
      "translation": [
        0.0,
        -0.9601843953132629,
        -2.186190128326416
      ]
    },
    {
      "mesh": 9,
      "name": "Object_18"
    },
    {
      "children": [
        18
      ],
      "name": "Wheels",
      "rotation": [
        -0.23892278969287872,
        0.0,
        0.0,
        0.9710385799407959
      ],
      "scale": [
        1.1690809726715088,
        1.1690810918807983,
        1.1690810918807983
      ],
      "translation": [
        0.0,
        -0.9601843953132629,
        3.0583484172821045
      ]
    },
    {
      "mesh": 10,
      "name": "Object_24"
    },
    {
      "children": [
        20
      ],
      "name": "Windows",
      "scale": [
        1.1690809726715088,
        1.1690809726715088,
        1.1690809726715088
      ]
    },
    {
      "children": [
        1,
        3,
        5,
        7,
        9,
        11,
        13,
        15,
        17,
        19,
        21
      ],
      "name": "Car"
    },
    {
      "extensions": {
        "KHR_lights_punctual": {
          "light": 0
        }
      },
      "name": "Light",
      "rotation": [
        -0.28416627645492554,
        0.7269423007965088,
        0.34203392267227173,
        0.5232754945755005
      ],
      "translation": [
        1.1280988454818726,
        1.6775470972061157,
        3.175034999847412
      ]
    },
    {
      "camera": 0,
      "matrix": [
        1.0,
        0.0,
        0.6965618133544922,
        0.0,
        0.0,
        1.0,
        0.5174212455749512,
        0.0,
        0.0,
        0.0,
        0.49706631898880005,
        0.0,
        11.654253959655762,
        9.015254974365234,
        6.50651741027832,
        0.0
      ],
      "name": "Camera"
    }
  ],
  "samplers": [
    {
      "magFilter": 9729,
      "minFilter": 9987,
      "wrapS": 10497,
      "wrapT": 10497
    }
  ],
  "scene": 0,
  "scenes": [
    {
      "name": "Scene",
      "nodes": [
        22,
        23,
        24
      ]
    }
  ],
  "textures": [
    {
      "sampler": 0,
      "source": 0
    },
    {
      "sampler": 0,
      "source": 1
    },
    {
      "sampler": 0,
      "source": 2
    },
    {
      "sampler": 0,
      "source": 3
    },
    {
      "sampler": 0,
      "source": 4
    },
    {
      "sampler": 0,
      "source": 5
    },
    {
      "sampler": 0,
      "source": 6
    },
    {
      "sampler": 0,
      "source": 7
    }
  ]
}
