{
  "accessors": [
    {
      "bufferView": 0,
      "componentType": 5123,
      "count": 46356,
      "max": [
        14555
      ],
      "min": [
        0
      ],
      "type": "SCALAR"
    },
    {
      "bufferView": 1,
      "componentType": 5126,
      "count": 14556,
      "max": [
        0.9424954056739807,
        0.8128451108932495,
        0.900973916053772
      ],
      "min": [
        -0.9474585652351379,
        -1.18715500831604,
        -0.9009949564933777
      ],
      "type": "VEC3"
    },
    {
      "bufferView": 2,
      "componentType": 5126,
      "count": 14556,
      "max": [
        1.0,
        1.0,
        1.0
      ],
      "min": [
        -1.0,
        -1.0,
        -1.0
      ],
      "type": "VEC3"
    },
    {
      "bufferView": 3,
      "componentType": 5126,
      "count": 14556,
      "max": [
        0.9999759793281555,
        1.998665988445282
      ],
      "min": [
        0.002448640065267682,
        1.0005531199858524
      ],
      "type": "VEC2"
    }
  ],
  "asset": {
    "generator": "Khronos Blender glTF 2.0 exporter",
    "version": "2.0"
  },
  "bufferViews": [
    {
      "buffer": 0,
      "byteLength": 92712,
      "target": 34963
    },
    {
      "buffer": 0,
      "byteLength": 174672,
      "byteOffset": 92712,
      "target": 34962
    },
    {
      "buffer": 0,
      "byteLength": 174672,
      "byteOffset": 267384,
      "target": 34962
    },
    {
      "buffer": 0,
      "byteLength": 116448,
      "byteOffset": 442056,
      "target": 34962
    }
  ],
  "buffers": [
    {
      "byteLength": 558504,
      "uri": "DamagedHelmet.bin"
    }
  ],
  "cameras": [
    {
      "perspective": {
        "aspectRatio": 1.0,
        "yfov": 45.0,
        "zfar": 1000.0,
        "znear": 0.10000000149011612
      },
      "type": "perspective"
    },
    {
      "orthographic": {
        "xmag": 25.0,
        "ymag": 25.0,
        "zfar": 1000.0,
        "znear": 0.10000000149011612
      },
      "type": "orthographic"
    }
  ],
  "extensions": {
    "KHR_lights_punctual": {
      "lights": [
        {
          "color": [
            0.0,
            1.0,
            0.8823528289794922
          ],
          "extras": {
            "distance": 5.0
          },
          "intensity": 1.0,
          "range": 3.0,
          "type": "directional"
        }
      ]
    }
  },
  "extensionsUsed": [
    "KHR_lights_punctual"
  ],
  "extras": {
    "Ambient color": [
      1.0,
      1.0,
      1.0
    ],
    "Ambient intensity": 0.023000000044703484,
    "Reflection factor": 0.5,
    "Shadow darkness": 1.0
  },
  "images": [
    {
      "uri": "Default_albedo.jpg"
    },
    {
      "uri": "Default_metalRoughness.jpg"
    },
    {
      "uri": "Default_emissive.jpg"
    },
    {
      "uri": "Default_AO.jpg"
    },
    {
      "uri": "Default_normal.jpg"
    }
  ],
  "materials": [
    {
      "emissiveFactor": [
        1.0,
        1.0,
        1.0
      ],
      "emissiveTexture": {
        "index": 2
      },
      "name": "Material_MR",
      "normalTexture": {
        "index": 4
      },
      "occlusionTexture": {
        "index": 3
      },
      "pbrMetallicRoughness": {
        "baseColorTexture": {
          "index": 0
        },
        "metallicRoughnessTexture": {
          "index": 1
        }
      }
    }
  ],
  "meshes": [
    {
      "name": "mesh_helmet_LP_13930damagedHelmet",
      "primitives": [
        {
          "attributes": {
            "NORMAL": 2,
            "POSITION": 1,
            "TEXCOORD_0": 3
          },
          "indices": 0,
          "material": 0,
          "mode": 4
        }
      ]
    }
  ],
  "nodes": [
    {
      "matrix": [
        1.0,
        0.0,
        0.0,
        0.0,
        0.0,
        -1.1920928955078125e-07,
        1.0000001192092896,
        0.0,
        0.0,
        -1.0000001192092896,
        -1.1920928955078125e-07,
        0.0,
        0.0,
        0.0,
        0.0,
        1.0
      ],
      "mesh": 0,
      "name": "node_damagedHelmet_-6514"
    },
    {
      "camera": 0,
      "matrix": [
        0.7430271506309509,
        -0.3031923472881317,
        0.5966448783874512,
        0.0,
        0.0,
        0.8914976716041565,
        0.45302534103393555,
        0.0,
        -0.6692613363265991,
        -0.3366101384162903,
        0.6624069213867188,
        0.0,
        -0.48279380798339844,
        0.10273134708404541,
        -6.788511753082275,
        1.0
      ],
      "name": "Camera"
    },
    {
      "camera": 1,
      "extensions": {
        "KHR_lights_punctual": {
          "light": 0
        }
      },
      "matrix": [
        1.0,
        0.0,
        0.0,
        0.0,
        0.0,
        1.0,
        0.0,
        0.0,
        0.0,
        0.0,
        1.0,
        0.0,
        0.3924557566642761,
        1.3136900663375854,
        -1.2518306970596313,
        1.0
      ],
      "name": "Directional Light"
    }
  ],
  "samplers": [
    {
      "wrapS": 10497,
      "wrapT": 10497
    }
  ],
  "scene": 0,
  "scenes": [
    {
      "name": "Scene",
      "nodes": [
        0
      ]
    }
  ],
  "textures": [
    {
      "sampler": 0,
      "source": 0
    },
    {
      "sampler": 0,
      "source": 1
    },
    {
      "sampler": 0,
      "source": 2
    },
    {
      "sampler": 0,
      "source": 3
    },
    {
      "sampler": 0,
      "source": 4
    }
  ]
}
