{
  "accessors": [
    {
      "bufferView": 0,
      "componentType": 5125,
      "count": 70074,
      "max": [
        70073
      ],
      "min": [
        0
      ],
      "type": "SCALAR"
    },
    {
      "bufferView": 1,
      "componentType": 5126,
      "count": 70074,
      "max": [
        1.1511525,
        1.4587184,
        1.2511277
      ],
      "min": [
        -1.1511525,
        -1.4587183,
        -1.2511287
      ],
      "type": "VEC3"
    },
    {
      "bufferView": 2,
      "componentType": 5126,
      "count": 70074,
      "max": [
        0.99993396,
        0.9998779,
        0.9999757
      ],
      "min": [
        -0.99993396,
        -0.9999633,
        -0.9999864
      ],
      "type": "VEC3"
    },
    {
      "bufferView": 3,
      "componentType": 5126,
      "count": 70074,
      "max": [
        0.9999959,
        1.0,
        0.9999942,
        1.0
      ],
      "min": [
        -0.99999845,
        -0.99996936,
        -0.9999994,
        1.0
      ],
      "type": "VEC4"
    },
    {
      "bufferView": 4,
      "componentType": 5126,
      "count": 70074,
      "max": [
        0.995369,
        0.990894
      ],
      "min": [
        0.003625,
        0.0064439773
      ],
      "type": "VEC2"
    }
  ],
  "asset": {
    "generator": "VKTS glTF 2.0 exporter",
    "version": "2.0"
  },
  "bufferViews": [
    {
      "buffer": 0,
      "byteLength": 280296,
      "target": 34963
    },
    {
      "buffer": 0,
      "byteLength": 840888,
      "byteOffset": 280296,
      "target": 34962
    },
    {
      "buffer": 0,
      "byteLength": 840888,
      "byteOffset": 1121184,
      "target": 34962
    },
    {
      "buffer": 0,
      "byteLength": 1121184,
      "byteOffset": 1962072,
      "target": 34962
    },
    {
      "buffer": 0,
      "byteLength": 560592,
      "byteOffset": 3083256,
      "target": 34962
    }
  ],
  "buffers": [
    {
      "byteLength": 3643848,
      "uri": "SciFiHelmet.bin"
    }
  ],
  "cameras": [
    {
      "perspective": {
        "aspectRatio": 1.0,
        "yfov": 45.0,
        "zfar": 100.0,
        "znear": 0.10000000149011612
      },
      "type": "perspective"
    },
    {
      "orthographic": {
        "xmag": 5.0,
        "ymag": 5.0,
        "zfar": 100.0,
        "znear": 0.10000000149011612
      },
      "type": "orthographic"
    }
  ],
  "extensions": {
    "KHR_lights_punctual": {
      "lights": [
        {
          "color": [
            0.9091694355010986,
            0.4852941036224365,
            1.0
          ],
          "extras": {
            "distance": 5.0
          },
          "intensity": 28.31100082397461,
          "range": 3.0,
          "type": "directional"
        }
      ]
    }
  },
  "extensionsUsed": [
    "KHR_lights_punctual"
  ],
  "extras": {
    "Ambient color": [
      1.0,
      1.0,
      1.0
    ],
    "Ambient intensity": 0.05000000074505806,
    "Reflection factor": 0.5,
    "Shadow darkness": 1.0
  },
  "images": [
    {
      "uri": "SciFiHelmet_BaseColor.png"
    },
    {
      "uri": "SciFiHelmet_MetallicRoughness.png"
    },
    {
      "uri": "SciFiHelmet_Normal.png"
    },
    {
      "uri": "SciFiHelmet_AmbientOcclusion.png"
    }
  ],
  "materials": [
    {
      "name": "SciFiHelmet",
      "normalTexture": {
        "index": 2
      },
      "occlusionTexture": {
        "index": 3
      },
      "pbrMetallicRoughness": {
        "baseColorTexture": {
          "index": 0
        },
        "metallicRoughnessTexture": {
          "index": 1
        }
      }
    }
  ],
  "meshes": [
    {
      "name": "SciFiHelmet",
      "primitives": [
        {
          "attributes": {
            "NORMAL": 2,
            "POSITION": 1,
            "TANGENT": 3,
            "TEXCOORD_0": 4
          },
          "indices": 0,
          "material": 0,
          "mode": 4
        }
      ]
    }
  ],
  "nodes": [
    {
      "matrix": [
        1.0,
        0.0,
        0.0,
        0.0,
        0.0,
        1.0,
        0.0,
        0.0,
        0.0,
        0.0,
        1.0,
        0.0,
        0.0,
        0.0,
        0.0,
        1.0
      ],
      "mesh": 0,
      "name": "SciFiHelmet"
    },
    {
      "camera": 0,
      "matrix": [
        0.9115471839904785,
        -0.1508367955684662,
        0.382531076669693,
        0.0,
        0.0,
        0.9302899837493896,
        0.36682501435279846,
        0.0,
        -0.4111955165863037,
        -0.33437830209732056,
        0.8480032086372375,
        0.0,
        -0.22913432121276855,
        -0.15347719192504883,
        -11.531373977661133,
        1.0
      ],
      "name": "Camera"
    },
    {
      "camera": 1,
      "extensions": {
        "KHR_lights_punctual": {
          "light": 0
        }
      },
      "matrix": [
        1.0,
        0.0,
        0.0,
        0.0,
        0.0,
        1.0,
        0.0,
        0.0,
        0.0,
        0.0,
        1.0,
        0.0,
        -1.2526111602783203,
        3.3408169746398926,
        -0.974945068359375,
        1.0
      ],
      "name": "Directional Light"
    }
  ],
  "samplers": [
    {
      "wrapS": 10497,
      "wrapT": 10497
    }
  ],
  "scene": 0,
  "scenes": [
    {
      "nodes": [
        0,
        1
      ]
    }
  ],
  "textures": [
    {
      "sampler": 0,
      "source": 0
    },
    {
      "sampler": 0,
      "source": 1
    },
    {
      "sampler": 0,
      "source": 2
    },
    {
      "sampler": 0,
      "source": 3
    }
  ]
}
